<svg width="640" height="480" xmlns="http://www.w3.org/2000/svg">
 <!-- Created with Method Draw - http://github.com/duopixel/Method-Draw/ -->
 <g id="Layer_1">
  <title>Layer 1</title>
  <path stroke="#0f0202" id="svg_2" d="m116.95345,234.41232l-17.81303,0c-5.24784,0 -10.13266,-5.33304 -10.13266,-11.40284l0,-4.40367l27.73824,0c4.48721,0 8.12736,-3.5369 8.12736,-7.89964c0,-4.36515 -3.64015,-7.90205 -8.12736,-7.90205l-27.73824,0l0,-7.80334c0,-4.41812 -3.39566,-8.00077 -7.88288,-8.00077c-4.48474,0 -8.12489,3.58265 -8.12489,8.00077l0,28.00871c0,14.99993 11.56995,27.14434 25.87124,27.14434l17.80809,0c4.48968,0 8.19404,-3.52246 8.19404,-7.94058s-3.43271,-7.80093 -7.91992,-7.80093z" opacity="undefined" fill-opacity="null" stroke-opacity="null" stroke-dasharray="null" stroke-width="null" fill="#000000"/>
  <path stroke="#0f0202" id="svg_6" d="m213.84616,187l-56.69231,0c-2.84492,0 -5.15385,2.17108 -5.15385,4.84615l0,53.30769c0,2.67508 2.30892,4.84615 5.15385,4.84615l56.69231,0c2.84492,0 5.15385,-2.17108 5.15385,-4.84615l0,-53.30769c0,-2.67508 -2.30892,-4.84615 -5.15385,-4.84615zm-41.31066,57.32031l-10.30769,0l0,-33.92308l10.30769,0l0,33.92308zm-5.15385,-37.55769c-3.56388,0 -6.44231,-2.71142 -6.44231,-6.05769s2.87842,-6.05769 6.44231,-6.05769s6.44231,2.71142 6.44231,6.05769s-2.87842,6.05769 -6.44231,6.05769zm41.23077,37.55769l-10.30769,0l0,-20.59615c0,-0.96923 -1.0385,-2.55635 -1.77035,-2.93919c-0.96635,-0.51127 -3.2495,-0.55488 -4.29058,-0.08238l-4.24677,1.9215l0,21.69623l-10.30769,0l0,-33.92308l10.30769,0l0,1.48777c4.07927,-1.75188 9.74077,-1.57985 13.58039,0.44585c4.07669,2.14685 7.035,6.93969 7.035,11.39331l0,20.59615z" opacity="undefined" fill-opacity="null" stroke-opacity="null" stroke-dasharray="null" stroke-width="null" fill="#000000"/>
  <path id="svg_8" d="m5.09615,3.125l-1.69231,0c-0.08492,0 -0.15385,0.03446 -0.15385,0.07692l0,0.84615c0,0.04246 0.06892,0.07692 0.15385,0.07692l1.69231,0c0.08492,0 0.15385,-0.03446 0.15385,-0.07692l0,-0.84615c0,-0.04246 -0.06892,-0.07692 -0.15385,-0.07692zm-1.23315,0.90985l-0.30769,0l0,-0.53846l0.30769,0l0,0.53846zm-0.15385,-0.59615c-0.10638,0 -0.19231,-0.04304 -0.19231,-0.09615s0.08592,-0.09615 0.19231,-0.09615s0.19231,0.04304 0.19231,0.09615s-0.08592,0.09615 -0.19231,0.09615zm1.23077,0.59615l-0.30769,0l0,-0.32692c0,-0.01538 -0.031,-0.04058 -0.05285,-0.04665c-0.02885,-0.00812 -0.097,-0.00881 -0.12808,-0.00131l-0.12677,0.0305l0,0.34438l-0.30769,0l0,-0.53846l0.30769,0l0,0.02362c0.12177,-0.02781 0.29077,-0.02508 0.40538,0.00708c0.12169,0.03408 0.21,0.11015 0.21,0.18085l0,0.32692z" opacity="undefined" fill-opacity="null" stroke-opacity="null" stroke-dasharray="null" stroke-width="null" stroke="#0f0202" fill="#000000"/>
  <path id="svg_11" d="m300.66668,217.12814c-2.76209,-0.48897 -5.63688,-0.81091 -7.9712,-0.89806l-0.41167,-0.01452c0.09429,-0.21786 0.16559,-0.36552 0.18859,-0.3873c0.0506,-0.04357 0.09199,-0.22754 0.09659,-0.40667c0,-0.09925 0.0414,-0.42119 0.10579,-0.84722c0.63245,0.02421 1.47189,0.04357 2.38722,0.05083c3.53483,0.02905 7.23296,0.32921 9.76966,0.80123c1.51099,0.28079 2.01005,0.27111 0.89463,-0.01452c-1.12921,-0.28806 -4.47776,-0.71167 -7.14556,-0.89564c-1.79157,-0.12829 -4.36047,-0.17671 -5.87376,-0.15008c0.0437,-0.27595 0.09429,-0.58337 0.14719,-0.89806c0.21388,-1.21758 0.28518,-2.44243 0.28978,-4.88001c0.0046,-3.78104 -0.18859,-4.82192 -1.3592,-7.32244c-0.47606,-1.02151 -1.01422,-1.8881 -1.66507,-2.67239c0.56806,-1.76465 0.55426,-4.49755 -0.0345,-6.89399c-0.48526,-1.96556 -0.65545,-2.09143 -2.34812,-1.71381c-1.43509,0.32195 -2.58501,0.76008 -4.05919,1.54195c-0.69685,0.37036 -1.65818,0.94647 -2.35502,1.39913c-1.81686,-0.67294 -3.69582,-1.11834 -5.70127,-1.35798c-2.03305,-0.24206 -7.01677,-0.10651 -8.78534,0.23722c-1.72947,0.33647 -3.28645,0.74798 -4.69625,1.23695c-0.70375,-0.4575 -1.72487,-1.07476 -2.45392,-1.46207c-1.48109,-0.78429 -2.631,-1.22 -4.07069,-1.54195c-1.68807,-0.38004 -1.86286,-0.25175 -2.34582,1.71381c-0.59795,2.4279 -0.60255,5.2068 -0.0115,6.96661c0.06899,0.20091 0.11039,0.34373 0.12649,0.45508c-2.39642,3.17588 -3.17836,6.72938 -2.6586,11.68928c0.13569,1.29262 0.34497,2.47874 0.63705,3.5656c-1.52938,-0.00968 -3.70502,0.04841 -5.2758,0.15492c-2.6724,0.18639 -6.02095,0.60516 -7.15016,0.89322c-1.11312,0.28564 -0.61865,0.29532 0.89463,0.01694c2.53671,-0.4696 6.23713,-0.77461 9.76966,-0.80123c0.66695,-0.00242 1.2902,-0.01694 1.82606,-0.03147c0.16099,0.57369 0.34497,1.12076 0.55426,1.64119l-0.0161,0.00242c-2.33432,0.08472 -5.20681,0.40667 -7.9689,0.89564c-2.07214,0.36552 -5.13091,1.09655 -5.48739,1.30715c-0.37487,0.22028 -0.06899,0.17187 1.53628,-0.25659c2.92768,-0.77945 6.73389,-1.37734 11.44854,-1.7937l0.52666,-0.04841c1.01192,2.4739 2.57121,4.362 4.77444,5.83375c1.3477,0.9029 3.50724,1.83 4.59505,1.97524c0.29898,0.03873 1.16831,0.22754 1.93185,0.41635c0.76584,0.18881 2.26303,0.47203 3.32555,0.63421l0.0253,0c-0.0207,0.01452 -0.0391,0.02421 -0.0575,0.03873c-1.2879,0.70441 -2.12504,1.80096 -2.6885,3.52687c-0.25298,0.07988 -0.56806,0.18881 -0.90843,0.31226c-1.21661,0.43572 -1.69037,0.52528 -2.92308,0.53496c-1.2787,0.00968 -1.58228,-0.04841 -2.34582,-0.42603c-1.11082,-0.54464 -2.14574,-1.54679 -2.83569,-2.74259c-1.15221,-1.99945 -3.14386,-3.4131 -4.80434,-3.4131c-1.41899,0 -1.68807,0.60516 -0.66235,1.48869c1.54548,1.32893 2.7,2.68449 3.17376,3.72053c0.26678,0.58095 0.67615,1.47901 0.91303,1.99461c0.25068,0.54949 0.78654,1.29504 1.2971,1.81064c1.20051,1.20548 2.35962,1.78159 4.08909,2.0527c1.15911,0.17913 1.44429,0.17913 2.81269,-0.00484c0.66005,-0.08472 1.21661,-0.18397 1.71567,-0.30742c0,0.59064 0,1.27084 0,2.06965c0,4.27485 -0.0483,5.64978 -0.20928,6.0516c-0.30358,0.76492 -0.98433,1.55163 -1.64668,1.90504c-0.66005,0.35341 -0.86473,0.74314 -0.58646,1.10139c0.15409,0.19365 0.45077,0.22754 1.44659,0.15976c1.89046,-0.12345 3.22666,-0.85933 3.90741,-2.15679c0.21848,-0.41635 0.26908,-1.25389 0.33807,-5.61105c0.07359,-4.72751 0.10579,-5.18259 0.39787,-5.85795c0.17709,-0.40183 0.43237,-0.83754 0.57496,-0.95615c0.23918,-0.20818 0.25528,0.20333 0.25528,5.85795c-0.0023,6.24041 -0.0621,6.99323 -0.65545,8.19387c-0.13339,0.27353 -0.38637,0.62937 -0.56346,0.79881c-0.31048,0.29774 -0.44157,1.06024 -0.22538,1.2902c0.35647,0.37278 2.14344,-0.21302 3.11857,-1.02151c1.66047,-1.38461 1.85826,-2.52957 1.87206,-10.79848l0.0069,-4.85097l0.50366,0.05083l0.50366,0.04841l0.08279,6.3445c0.09429,7.14331 0.10809,7.2474 1.2626,8.62717c0.65545,0.77945 1.3155,1.21032 2.38952,1.54679c1.43739,0.45508 1.86976,-0.24691 0.90383,-1.46449c-1.05102,-1.32409 -1.10162,-1.83 -1.04412,-9.66804c0.0391,-5.02525 0.0391,-5.02525 0.34727,-4.73235c0.64855,0.61968 0.77274,1.63635 0.77274,6.34934c0,5.85311 0.15869,6.40986 2.12274,7.43137c0.91763,0.47203 1.17521,0.53012 2.35042,0.53496c1.25111,0.00484 1.327,-0.01452 1.373,-0.35825c0.0391,-0.27837 -0.11499,-0.46718 -0.69915,-0.84238c-0.76584,-0.49623 -1.2971,-1.13044 -1.63058,-1.92925c-0.12649,-0.30742 -0.21158,-2.3214 -0.26908,-6.46795c-0.08279,-5.7926 -0.10119,-6.05644 -0.44387,-6.96419c-0.46227,-1.22 -1.16831,-2.18342 -2.06294,-2.82247c-0.23228,-0.15976 -0.46457,-0.2929 -0.76584,-0.39214c0.37027,-0.03873 0.72905,-0.07988 1.07632,-0.13314c3.61533,-0.50591 5.52648,-0.92711 7.06047,-1.55163c3.24506,-1.31441 5.43909,-3.49783 6.6281,-6.59383c0.10579,-0.27595 0.21158,-0.53738 0.30128,-0.74798l0.91533,0.07988c4.71694,0.41877 8.52316,1.01667 11.45084,1.79854c1.60528,0.42845 1.91116,0.47929 1.53628,0.25417c-0.34957,-0.20575 -3.40834,-0.93437 -5.47819,-1.29988zm-13.83116,-0.07504c-0.53586,1.23937 -2.03075,2.83215 -3.23816,3.45668c-1.19131,0.61968 -3.05877,1.09171 -5.17461,1.31683c-1.44659,0.15492 -9.51438,0.20091 -10.84598,0.06294c-4.40877,-0.45508 -6.87878,-1.3483 -8.70024,-3.13715c-1.72487,-1.69929 -2.52981,-4.00616 -2.38952,-6.84557c0.08969,-1.77675 0.49676,-2.89267 1.56158,-4.24823c0.96823,-1.23453 1.98705,-1.99703 3.18756,-2.38433c1.00502,-0.32437 4.08909,-0.35341 8.23568,-0.07262c1.83296,0.12345 3.34855,0.12345 5.17921,0c4.33747,-0.28806 7.23296,-0.25659 8.30237,0.09198c1.68117,0.54706 3.21286,2.01881 4.13279,3.97953c0.41397,0.87627 0.49446,1.24905 0.55426,2.60219c0.08279,1.86389 -0.22308,3.84398 -0.80494,5.17775zm-21.87135,-8.00264c-2.46771,-0.45508 -3.87751,3.99164 -1.98475,6.2622c0.89923,1.07719 1.69727,1.25389 2.6954,0.60032c0.92453,-0.60758 1.42589,-1.74286 1.42589,-3.21461c0,-1.96314 -0.84864,-3.40584 -2.13654,-3.64791zm14.97877,0.26627c-2.46771,-0.45508 -3.87981,3.9868 -1.98705,6.25978c0.90153,1.07719 1.69727,1.25631 2.6977,0.5979c0.92223,-0.60516 1.42589,-1.74286 1.42589,-3.21461c0,-1.95588 -0.84864,-3.40342 -2.13654,-3.64307zm-6.6373,8.74336c-0.0529,0.17913 -0.31048,0.4454 -0.57036,0.58822c-0.65775,0.35583 -1.13151,0.23238 -1.82606,-0.43329c-0.43007,-0.40909 -0.62555,-0.62453 -0.75664,-0.19607c-0.12189,0.39699 0.64395,1.19338 1.23501,1.43786c0.54276,0.22754 0.93143,0.2348 1.52019,-0.02421c0.58416,-0.25659 1.09472,-0.94647 1.09472,-1.39429c0,-0.41635 -0.56806,-0.39699 -0.69685,0.02179zm-0.72905,-1.39187c0.37487,-0.34857 0.45997,-1.06508 0.10119,-1.44512s-1.08782,-0.32195 -1.373,0.10409c-0.33118,0.49865 -0.15409,0.87869 0.08279,1.28294c0.36797,0.30016 0.86244,0.36068 1.18901,0.0581z" opacity="undefined" fill-opacity="null" stroke-opacity="null" stroke-dasharray="null" stroke-width="null" stroke="#0f0202" fill="#000000"/>
  <path id="svg_12" d="m355.76391,202.6411c-5.858,0 -10.63555,4.65322 -10.63555,10.35613s4.77755,10.35613 10.63555,10.35613c5.858,0 10.63555,-4.65322 10.63555,-10.35613s-4.77755,-10.35613 -10.63555,-10.35613zm26.97649,10.30706c-0.75082,-3.88088 -2.1731,-6.51152 -3.51398,-8.52343c0.10174,0.27522 0.18313,0.55258 0.28079,0.82781c-4.76128,-13.55855 -23.81452,-20.90855 -38.53174,-11.58504c-0.11395,0.57605 -0.14854,1.14784 -0.14854,1.71535c0,-0.10881 -0.01221,-0.20909 -0.00814,-0.32003c-3.54654,-0.28589 -7.84186,4.3972 -11.66106,12.97823c-1.9391,4.85804 -2.64108,10.17692 -0.84238,16.41321c1.04992,3.63979 2.70213,7.37346 5.0848,10.27079c7.06256,8.59171 17.88124,12.09709 24.18077,10.31559c0.00814,0.00213 0.01831,0.0064 0.02849,0.00853c12.14532,-0.26669 21.35249,-9.02054 24.67114,-20.4157c1.19439,-4.11344 1.27171,-7.48014 0.45985,-11.68532zm-47.79995,20.3837c-1.95334,-2.37248 -3.57096,-5.65598 -4.67785,-9.49845c-1.49146,-5.16313 -1.24526,-9.92089 0.77116,-14.96668c2.04694,-4.59348 4.04505,-7.61242 5.7644,-9.42805c0.30521,1.58308 1.0601,3.47338 2.26466,5.65171c0.44357,0.80861 0.93394,1.4956 1.40804,2.15913c0.36422,0.50565 0.72437,1.01129 1.04382,1.55534c0.25231,0.43097 0.4863,0.94942 0.7203,1.57241c-0.4863,5.87573 1.81498,10.96205 6.40534,14.24981l-5.18043,4.80043l-0.41102,0.36483c-0.42322,0.36483 -0.90953,0.7958 -1.32461,1.25665c-2.76724,3.08081 -0.50868,6.04001 0.58193,7.46307l0.13836,0.18562c0.48223,0.63366 1.04382,1.32279 1.65831,2.00125c-3.22098,-1.63855 -6.45214,-4.07077 -9.1624,-7.36706zm45.39693,-9.32351c-3.25557,11.1626 -12.08021,18.56167 -22.5245,18.9009c-5.05631,-1.24385 -8.87551,-3.79767 -11.36602,-7.58895c0.00814,-0.00853 0.02035,-0.01707 0.03052,-0.02774l10.05972,-8.1842c4.52932,-0.26456 7.84186,-1.89457 9.86235,-4.86017c2.48644,-3.01254 3.64624,-6.45391 3.4448,-10.37107c3.69711,0.80434 6.89571,1.92657 9.87863,4.01743l0.23603,0.16641l0.27265,0.09174c0.31742,0.10454 0.6328,0.16215 0.93394,0.17282c0.22179,2.64557 -0.04273,4.97751 -0.82814,7.68282zm0.51886,-9.88462c-3.96976,-2.78638 -8.26509,-3.98329 -13.41703,-4.87511c1.08044,5.03085 -0.17092,8.68771 -2.69806,11.75999c-1.79463,2.6349 -4.84673,3.88728 -8.94062,4.00036l-10.62131,8.64504c-1.01126,0.87261 -1.20253,1.74736 -0.57379,2.6221c1.72749,2.72451 3.925,4.69802 6.35244,6.14029c-0.02645,0 -0.0529,0.00427 -0.07935,0.0064c-0.00203,-0.00213 -0.00814,-0.00427 -0.01221,-0.00853c-0.04069,0.0064 -0.08342,0.00853 -0.12615,0.01067c-0.16278,0.00213 -0.32556,-0.00213 -0.4863,-0.02134c-0.31742,-0.0448 -0.63891,-0.13655 -0.93394,-0.25176c-1.82719,-0.71046 -3.84565,-2.88453 -5.2842,-4.77696c-1.18218,-1.55747 -2.45389,-3.05734 -0.83628,-4.85377c0.52496,-0.58245 1.18421,-1.09663 1.6054,-1.4892l5.12956,-4.75563c0.34997,-0.29229 0.71216,-0.59099 1.08858,-0.90248c0.10784,-0.08961 0.21772,-0.17922 0.32963,-0.27096c1.14759,-0.94302 0.98278,-0.68273 -0.21975,-1.36972c-4.92202,-2.81625 -7.48171,-7.71056 -6.8245,-13.63109c-0.30318,-0.87475 -0.64501,-1.68975 -1.05399,-2.39808c-0.73861,-1.28012 -1.69697,-2.35114 -2.42947,-3.67606c-1.83126,-3.31977 -3.75815,-8.32502 0.02645,-7.85564c-0.01017,-0.11308 -0.00407,-0.23469 -0.01017,-0.3499c0.19126,4.26918 3.105,8.15647 3.54451,10.42867c0.15871,0.81501 0.59821,1.50414 1.24526,0.59739c5.16415,-7.24332 12.3488,-6.51365 16.94526,-2.79919c0.90139,0.7254 1.39176,1.61081 2.20565,2.36821c0.31335,0.29443 0.66739,0.55258 1.08858,0.74887c1.51181,0.70833 3.67676,0.66566 5.30455,0.92595c2.78962,0.44377 5.50802,0.98996 8.07993,1.73242c0.50868,0.06401 0.86273,-0.00853 1.0601,-0.21549c0.42933,-0.44377 -0.00407,-1.89244 -0.2462,-2.69464c0.56362,1.71749 1.09062,3.43284 1.57285,5.15246c0.36829,1.33985 0.28079,2.42155 -0.78541,2.05672z" opacity="undefined" fill-opacity="null" stroke-opacity="null" stroke-dasharray="null" stroke-width="null" stroke="#0f0202" fill="#000000"/>
  <path id="svg_13" d="m-3.11045,-0.09931c-1.35989,0 -2.46897,0.49856 -2.46897,1.10959s1.10908,1.10959 2.46897,1.10959c1.35989,0 2.46897,-0.49856 2.46897,-1.10959s-1.10908,-1.10959 -2.46897,-1.10959zm6.2624,1.10433c-0.1743,-0.41581 -0.50447,-0.69766 -0.81575,-0.91323c0.02362,0.02949 0.04251,0.05921 0.06518,0.08869c-1.1053,-1.4527 -5.52837,-2.2402 -8.94487,-1.24125c-0.02645,0.06172 -0.03448,0.12298 -0.03448,0.18379c0,-0.01166 -0.00283,-0.0224 -0.00189,-0.03429c-0.8233,-0.03063 -1.82043,0.47113 -2.70703,1.39053c-0.45015,0.5205 -0.61311,1.09038 -0.19555,1.75856c0.24373,0.38998 0.62728,0.79001 1.1804,1.10044c1.63952,0.92054 4.151,1.29612 5.61339,1.10524c0.00189,0.00023 0.00425,0.00069 0.00661,0.00091c2.81945,-0.02857 4.95683,-0.96649 5.72723,-2.1874c0.27727,-0.44073 0.29522,-0.80144 0.10675,-1.252zm-11.09642,2.18397c-0.45345,-0.25419 -0.82897,-0.606 -1.08593,-1.01769c-0.34623,-0.55319 -0.28908,-1.06295 0.17902,-1.60357c0.47518,-0.49216 0.93903,-0.81562 1.33816,-1.01015c0.07085,0.16962 0.24609,0.37215 0.52572,0.60554c0.10297,0.08664 0.21681,0.16024 0.32687,0.23134c0.08455,0.05418 0.16816,0.10835 0.24231,0.16664c0.05857,0.04618 0.11289,0.10172 0.16721,0.16847c-0.11289,0.62954 0.42134,1.17451 1.48695,1.52677l-1.2026,0.51433l-0.09541,0.03909c-0.09825,0.03909 -0.21114,0.08526 -0.3075,0.13464c-0.64239,0.33009 -0.11809,0.64714 0.13509,0.79961l0.03212,0.01989c0.11195,0.06789 0.24231,0.14173 0.38496,0.21442c-0.74773,-0.17556 -1.49782,-0.43615 -2.12699,-0.78933zm10.53857,-0.99895c-0.75576,1.19599 -2.80433,1.98875 -5.2289,2.0251c-1.17379,-0.13327 -2.06039,-0.40689 -2.63854,-0.8131c0.00189,-0.00091 0.00472,-0.00183 0.00709,-0.00297l2.33529,-0.87688c1.05145,-0.02835 1.82043,-0.20299 2.28947,-0.52073c0.57721,-0.32277 0.84645,-0.69149 0.79969,-1.11119c0.85826,0.08618 1.60079,0.20642 2.29325,0.43044l0.05479,0.01783l0.06329,0.00983c0.07369,0.0112 0.1469,0.01737 0.21681,0.01852c0.05149,0.28345 -0.00992,0.53331 -0.19225,0.82316zm0.12045,-1.05907c-0.92155,-0.29854 -1.91868,-0.42678 -3.11467,-0.52233c0.25082,0.53902 -0.03968,0.93083 -0.62633,1.26c-0.41661,0.28231 -1.12513,0.41649 -2.0755,0.42861l-2.46566,0.92625c-0.23476,0.09349 -0.27916,0.18722 -0.1332,0.28094c0.40102,0.29191 0.91116,0.50336 1.47467,0.65789c-0.00614,0 -0.01228,0.00046 -0.01842,0.00069c-0.00047,-0.00023 -0.00189,-0.00046 -0.00283,-0.00091c-0.00945,0.00069 -0.01937,0.00091 -0.02929,0.00114c-0.03779,0.00023 -0.07558,-0.00023 -0.11289,-0.00229c-0.07369,-0.0048 -0.14832,-0.01463 -0.21681,-0.02697c-0.42417,-0.07612 -0.89274,-0.30906 -1.22669,-0.51182c-0.27443,-0.16687 -0.56965,-0.32757 -0.19414,-0.52005c0.12187,-0.06241 0.27491,-0.1175 0.37268,-0.15956l1.19079,-0.50953c0.08124,-0.03132 0.16532,-0.06332 0.25271,-0.09669c0.02503,-0.0096 0.05054,-0.0192 0.07652,-0.02903c0.2664,-0.10104 0.22814,-0.07315 -0.05101,-0.14676c-1.14261,-0.30174 -1.73683,-0.82613 -1.58426,-1.46047c-0.07038,-0.09372 -0.14973,-0.18104 -0.24468,-0.25694c-0.17146,-0.13716 -0.39394,-0.25191 -0.56398,-0.39386c-0.42511,-0.35569 -0.87243,-0.89197 0.00614,-0.84168c-0.00236,-0.01212 -0.00094,-0.02515 -0.00236,-0.03749c0.0444,0.45741 0.7208,0.87391 0.82283,1.11736c0.03684,0.08732 0.13887,0.16116 0.28908,0.06401c1.19882,-0.77607 2.86668,-0.69789 3.93372,-0.29991c0.20925,0.07772 0.32309,0.17259 0.51203,0.25374c0.07274,0.03155 0.15493,0.05921 0.25271,0.08024c0.35096,0.07589 0.85353,0.07132 1.23141,0.09921c0.64759,0.04755 1.27865,0.10607 1.8757,0.18562c0.11809,0.00686 0.20028,-0.00091 0.24609,-0.02309c0.09967,-0.04755 -0.00094,-0.20276 -0.05715,-0.28871c0.13084,0.18402 0.25318,0.3678 0.36513,0.55205c0.0855,0.14356 0.06518,0.25945 -0.18233,0.22036z" opacity="undefined" fill-opacity="null" stroke-opacity="null" stroke-dasharray="null" stroke-width="null" stroke="#0f0202" fill="#000000"/>
  <path id="svg_14" d="m166.5,218.2" opacity="NaN" stroke-dasharray="null" stroke-width="null" stroke="#ffffff" fill="#FFAC8D"/>
 </g>
</svg>